<?xml version="1.0" encoding="utf-8" standalone="no"?>
<!DOCTYPE svg PUBLIC "-//W3C//DTD SVG 1.1//EN"
  "http://www.w3.org/Graphics/SVG/1.1/DTD/svg11.dtd">
<svg xmlns:xlink="http://www.w3.org/1999/xlink" width="432pt" height="576pt" viewBox="0 0 432 576" xmlns="http://www.w3.org/2000/svg" version="1.1">
 <metadata>
  <rdf:RDF xmlns:dc="http://purl.org/dc/elements/1.1/" xmlns:cc="http://creativecommons.org/ns#" xmlns:rdf="http://www.w3.org/1999/02/22-rdf-syntax-ns#">
   <cc:Work>
    <dc:type rdf:resource="http://purl.org/dc/dcmitype/StillImage"/>
    <dc:date>2026-02-04T18:23:39.045467</dc:date>
    <dc:format>image/svg+xml</dc:format>
    <dc:creator>
     <cc:Agent>
      <dc:title>Matplotlib v3.10.0, https://matplotlib.org/</dc:title>
     </cc:Agent>
    </dc:creator>
   </cc:Work>
  </rdf:RDF>
 </metadata>
 <defs>
  <style type="text/css">*{stroke-linejoin: round; stroke-linecap: butt}</style>
 </defs>
 <g id="figure_1">
  <g id="patch_1">
   <path d="M 0 576 
L 432 576 
L 432 0 
L 0 0 
z
" style="fill: #ffffff"/>
  </g>
  <g id="axes_1">
   <g id="patch_2">
    <path d="M 50.132 266.370633 
L 421.2 266.370633 
L 421.2 28.8 
L 50.132 28.8 
z
" style="fill: #ffffff"/>
   </g>
   <g id="FillBetweenPolyCollection_1">
    <defs>
     <path id="mc5b594856e" d="M 66.998727 -343.282789 
L 66.998727 -333.132202 
L 81.665447 -331.898819 
L 96.332166 -323.637557 
L 110.998885 -320.428032 
L 125.665605 -335.875076 
L 140.332324 -380.278334 
L 154.999043 -438.003785 
L 169.665763 -460.31144 
L 184.332482 -454.264806 
L 198.999202 -445.994789 
L 213.665921 -445.898707 
L 228.33264 -447.818806 
L 242.99936 -450.178311 
L 257.666079 -457.486382 
L 272.332798 -467.543875 
L 286.999518 -480.916475 
L 301.666237 -483.339212 
L 316.332957 -472.092501 
L 330.999676 -455.401518 
L 345.666395 -445.718843 
L 360.333115 -435.147007 
L 374.999834 -421.960634 
L 389.666553 -400.59634 
L 404.333273 -368.159283 
L 404.333273 -379.183133 
L 404.333273 -379.183133 
L 389.666553 -411.802321 
L 374.999834 -433.993565 
L 360.333115 -448.062132 
L 345.666395 -457.367957 
L 330.999676 -467.540424 
L 316.332957 -485.510028 
L 301.666237 -497.177063 
L 286.999518 -494.54184 
L 272.332798 -480.473486 
L 257.666079 -470.457727 
L 242.99936 -462.559578 
L 228.33264 -460.837614 
L 213.665921 -457.92289 
L 198.999202 -457.420969 
L 184.332482 -466.649347 
L 169.665763 -472.812728 
L 154.999043 -449.656904 
L 140.332324 -390.965035 
L 125.665605 -345.4431 
L 110.998885 -328.802356 
L 96.332166 -332.571848 
L 81.665447 -340.921126 
L 66.998727 -343.282789 
z
" style="stroke: #0000ff; stroke-opacity: 0.2"/>
    </defs>
    <g clip-path="url(#pef3da4f25f)">
     <use xlink:href="#mc5b594856e" x="0" y="576" style="fill: #0000ff; fill-opacity: 0.2; stroke: #0000ff; stroke-opacity: 0.2"/>
    </g>
   </g>
   <g id="FillBetweenPolyCollection_2">
    <defs>
     <path id="m5a82a19916" d="M 66.998727 -366.68335 
L 66.998727 -349.715997 
L 81.665447 -341.392646 
L 96.332166 -331.746848 
L 110.998885 -329.009286 
L 125.665605 -342.320929 
L 140.332324 -381.937993 
L 154.999043 -444.048094 
L 169.665763 -487.643912 
L 184.332482 -492.713197 
L 198.999202 -484.10502 
L 213.665921 -478.358421 
L 228.33264 -478.799734 
L 242.99936 -478.664265 
L 257.666079 -482.175688 
L 272.332798 -494.089976 
L 286.999518 -506.481445 
L 301.666237 -511.239493 
L 316.332957 -507.319612 
L 330.999676 -492.854717 
L 345.666395 -476.665524 
L 360.333115 -459.474883 
L 374.999834 -442.370668 
L 389.666553 -417.354935 
L 404.333273 -386.437233 
L 404.333273 -406.068328 
L 404.333273 -406.068328 
L 389.666553 -439.361974 
L 374.999834 -463.369992 
L 360.333115 -480.952881 
L 345.666395 -499.840336 
L 330.999676 -516.997979 
L 316.332957 -528.89785 
L 301.666237 -534.995901 
L 286.999518 -529.539862 
L 272.332798 -517.351337 
L 257.666079 -503.618199 
L 242.99936 -500.489713 
L 228.33264 -499.774473 
L 213.665921 -500.18202 
L 198.999202 -505.45129 
L 184.332482 -514.144766 
L 169.665763 -507.019077 
L 154.999043 -461.919552 
L 140.332324 -397.194574 
L 125.665605 -358.317976 
L 110.998885 -344.521314 
L 96.332166 -347.872638 
L 81.665447 -358.782343 
L 66.998727 -366.68335 
z
" style="stroke: #000000; stroke-opacity: 0.2"/>
    </defs>
    <g clip-path="url(#pef3da4f25f)">
     <use xlink:href="#m5a82a19916" x="0" y="576" style="fill-opacity: 0.2; stroke: #000000; stroke-opacity: 0.2"/>
    </g>
   </g>
   <g id="FillBetweenPolyCollection_3">
    <defs>
     <path id="m3c69bcd603" d="M 66.998727 -359.794657 
L 66.998727 -353.955178 
L 81.665447 -345.248459 
L 96.332166 -334.601079 
L 110.998885 -330.0909 
L 125.665605 -341.271655 
L 140.332324 -381.58341 
L 154.999043 -448.767639 
L 169.665763 -502.525617 
L 184.332482 -511.902785 
L 198.999202 -496.656566 
L 213.665921 -484.503031 
L 228.33264 -478.860503 
L 242.99936 -476.272183 
L 257.666079 -479.6143 
L 272.332798 -489.870019 
L 286.999518 -510.781143 
L 301.666237 -528.405966 
L 316.332957 -528.444726 
L 330.999676 -512.853692 
L 345.666395 -488.448295 
L 360.333115 -465.953251 
L 374.999834 -448.476423 
L 389.666553 -426.336357 
L 404.333273 -392.470231 
L 404.333273 -398.807942 
L 404.333273 -398.807942 
L 389.666553 -432.518457 
L 374.999834 -455.535307 
L 360.333115 -472.722675 
L 345.666395 -495.934142 
L 330.999676 -520.919987 
L 316.332957 -536.401335 
L 301.666237 -536.18609 
L 286.999518 -517.819719 
L 272.332798 -497.27201 
L 257.666079 -486.276579 
L 242.99936 -482.977214 
L 228.33264 -485.55567 
L 213.665921 -491.139406 
L 198.999202 -503.686093 
L 184.332482 -518.715376 
L 169.665763 -508.776514 
L 154.999043 -454.652467 
L 140.332324 -386.985447 
L 125.665605 -346.019063 
L 110.998885 -335.173638 
L 96.332166 -339.898465 
L 81.665447 -350.59874 
L 66.998727 -359.794657 
z
" style="stroke: #ff0000; stroke-opacity: 0.2"/>
    </defs>
    <g clip-path="url(#pef3da4f25f)">
     <use xlink:href="#m3c69bcd603" x="0" y="576" style="fill: #ff0000; fill-opacity: 0.2; stroke: #ff0000; stroke-opacity: 0.2"/>
    </g>
   </g>
   <g id="matplotlib.axis_1">
    <g id="xtick_1">
     <g id="line2d_1">
      <defs>
       <path id="m6e6191b74e" d="M 0 0 
L 0 3.5 
" style="stroke: #000000; stroke-width: 0.8"/>
      </defs>
      <g>
       <use xlink:href="#m6e6191b74e" x="66.998727" y="266.370633" style="stroke: #000000; stroke-width: 0.8"/>
      </g>
     </g>
     <g id="text_1">
      <!-- 0 -->
      <g transform="translate(63.817477 280.96907) scale(0.1 -0.1)">
       <defs>
        <path id="DejaVuSans-30" d="M 2034 4250 
Q 1547 4250 1301 3770 
Q 1056 3291 1056 2328 
Q 1056 1369 1301 889 
Q 1547 409 2034 409 
Q 2525 409 2770 889 
Q 3016 1369 3016 2328 
Q 3016 3291 2770 3770 
Q 2525 4250 2034 4250 
z
M 2034 4750 
Q 2819 4750 3233 4129 
Q 3647 3509 3647 2328 
Q 3647 1150 3233 529 
Q 2819 -91 2034 -91 
Q 1250 -91 836 529 
Q 422 1150 422 2328 
Q 422 3509 836 4129 
Q 1250 4750 2034 4750 
z
" transform="scale(0.015625)"/>
       </defs>
       <use xlink:href="#DejaVuSans-30"/>
      </g>
     </g>
    </g>
    <g id="xtick_2">
     <g id="line2d_2">
      <g>
       <use xlink:href="#m6e6191b74e" x="96.332166" y="266.370633" style="stroke: #000000; stroke-width: 0.8"/>
      </g>
     </g>
     <g id="text_2">
      <!-- 2 -->
      <g transform="translate(93.150916 280.96907) scale(0.1 -0.1)">
       <defs>
        <path id="DejaVuSans-32" d="M 1228 531 
L 3431 531 
L 3431 0 
L 469 0 
L 469 531 
Q 828 903 1448 1529 
Q 2069 2156 2228 2338 
Q 2531 2678 2651 2914 
Q 2772 3150 2772 3378 
Q 2772 3750 2511 3984 
Q 2250 4219 1831 4219 
Q 1534 4219 1204 4116 
Q 875 4013 500 3803 
L 500 4441 
Q 881 4594 1212 4672 
Q 1544 4750 1819 4750 
Q 2544 4750 2975 4387 
Q 3406 4025 3406 3419 
Q 3406 3131 3298 2873 
Q 3191 2616 2906 2266 
Q 2828 2175 2409 1742 
Q 1991 1309 1228 531 
z
" transform="scale(0.015625)"/>
       </defs>
       <use xlink:href="#DejaVuSans-32"/>
      </g>
     </g>
    </g>
    <g id="xtick_3">
     <g id="line2d_3">
      <g>
       <use xlink:href="#m6e6191b74e" x="125.665605" y="266.370633" style="stroke: #000000; stroke-width: 0.8"/>
      </g>
     </g>
     <g id="text_3">
      <!-- 4 -->
      <g transform="translate(122.484355 280.96907) scale(0.1 -0.1)">
       <defs>
        <path id="DejaVuSans-34" d="M 2419 4116 
L 825 1625 
L 2419 1625 
L 2419 4116 
z
M 2253 4666 
L 3047 4666 
L 3047 1625 
L 3713 1625 
L 3713 1100 
L 3047 1100 
L 3047 0 
L 2419 0 
L 2419 1100 
L 313 1100 
L 313 1709 
L 2253 4666 
z
" transform="scale(0.015625)"/>
       </defs>
       <use xlink:href="#DejaVuSans-34"/>
      </g>
     </g>
    </g>
    <g id="xtick_4">
     <g id="line2d_4">
      <g>
       <use xlink:href="#m6e6191b74e" x="154.999043" y="266.370633" style="stroke: #000000; stroke-width: 0.8"/>
      </g>
     </g>
     <g id="text_4">
      <!-- 6 -->
      <g transform="translate(151.817793 280.96907) scale(0.1 -0.1)">
       <defs>
        <path id="DejaVuSans-36" d="M 2113 2584 
Q 1688 2584 1439 2293 
Q 1191 2003 1191 1497 
Q 1191 994 1439 701 
Q 1688 409 2113 409 
Q 2538 409 2786 701 
Q 3034 994 3034 1497 
Q 3034 2003 2786 2293 
Q 2538 2584 2113 2584 
z
M 3366 4563 
L 3366 3988 
Q 3128 4100 2886 4159 
Q 2644 4219 2406 4219 
Q 1781 4219 1451 3797 
Q 1122 3375 1075 2522 
Q 1259 2794 1537 2939 
Q 1816 3084 2150 3084 
Q 2853 3084 3261 2657 
Q 3669 2231 3669 1497 
Q 3669 778 3244 343 
Q 2819 -91 2113 -91 
Q 1303 -91 875 529 
Q 447 1150 447 2328 
Q 447 3434 972 4092 
Q 1497 4750 2381 4750 
Q 2619 4750 2861 4703 
Q 3103 4656 3366 4563 
z
" transform="scale(0.015625)"/>
       </defs>
       <use xlink:href="#DejaVuSans-36"/>
      </g>
     </g>
    </g>
    <g id="xtick_5">
     <g id="line2d_5">
      <g>
       <use xlink:href="#m6e6191b74e" x="184.332482" y="266.370633" style="stroke: #000000; stroke-width: 0.8"/>
      </g>
     </g>
     <g id="text_5">
      <!-- 8 -->
      <g transform="translate(181.151232 280.96907) scale(0.1 -0.1)">
       <defs>
        <path id="DejaVuSans-38" d="M 2034 2216 
Q 1584 2216 1326 1975 
Q 1069 1734 1069 1313 
Q 1069 891 1326 650 
Q 1584 409 2034 409 
Q 2484 409 2743 651 
Q 3003 894 3003 1313 
Q 3003 1734 2745 1975 
Q 2488 2216 2034 2216 
z
M 1403 2484 
Q 997 2584 770 2862 
Q 544 3141 544 3541 
Q 544 4100 942 4425 
Q 1341 4750 2034 4750 
Q 2731 4750 3128 4425 
Q 3525 4100 3525 3541 
Q 3525 3141 3298 2862 
Q 3072 2584 2669 2484 
Q 3125 2378 3379 2068 
Q 3634 1759 3634 1313 
Q 3634 634 3220 271 
Q 2806 -91 2034 -91 
Q 1263 -91 848 271 
Q 434 634 434 1313 
Q 434 1759 690 2068 
Q 947 2378 1403 2484 
z
M 1172 3481 
Q 1172 3119 1398 2916 
Q 1625 2713 2034 2713 
Q 2441 2713 2670 2916 
Q 2900 3119 2900 3481 
Q 2900 3844 2670 4047 
Q 2441 4250 2034 4250 
Q 1625 4250 1398 4047 
Q 1172 3844 1172 3481 
z
" transform="scale(0.015625)"/>
       </defs>
       <use xlink:href="#DejaVuSans-38"/>
      </g>
     </g>
    </g>
    <g id="xtick_6">
     <g id="line2d_6">
      <g>
       <use xlink:href="#m6e6191b74e" x="213.665921" y="266.370633" style="stroke: #000000; stroke-width: 0.8"/>
      </g>
     </g>
     <g id="text_6">
      <!-- 10 -->
      <g transform="translate(207.303421 280.96907) scale(0.1 -0.1)">
       <defs>
        <path id="DejaVuSans-31" d="M 794 531 
L 1825 531 
L 1825 4091 
L 703 3866 
L 703 4441 
L 1819 4666 
L 2450 4666 
L 2450 531 
L 3481 531 
L 3481 0 
L 794 0 
L 794 531 
z
" transform="scale(0.015625)"/>
       </defs>
       <use xlink:href="#DejaVuSans-31"/>
       <use xlink:href="#DejaVuSans-30" transform="translate(63.623047 0)"/>
      </g>
     </g>
    </g>
    <g id="xtick_7">
     <g id="line2d_7">
      <g>
       <use xlink:href="#m6e6191b74e" x="242.99936" y="266.370633" style="stroke: #000000; stroke-width: 0.8"/>
      </g>
     </g>
     <g id="text_7">
      <!-- 12 -->
      <g transform="translate(236.63686 280.96907) scale(0.1 -0.1)">
       <use xlink:href="#DejaVuSans-31"/>
       <use xlink:href="#DejaVuSans-32" transform="translate(63.623047 0)"/>
      </g>
     </g>
    </g>
    <g id="xtick_8">
     <g id="line2d_8">
      <g>
       <use xlink:href="#m6e6191b74e" x="272.332798" y="266.370633" style="stroke: #000000; stroke-width: 0.8"/>
      </g>
     </g>
     <g id="text_8">
      <!-- 14 -->
      <g transform="translate(265.970298 280.96907) scale(0.1 -0.1)">
       <use xlink:href="#DejaVuSans-31"/>
       <use xlink:href="#DejaVuSans-34" transform="translate(63.623047 0)"/>
      </g>
     </g>
    </g>
    <g id="xtick_9">
     <g id="line2d_9">
      <g>
       <use xlink:href="#m6e6191b74e" x="301.666237" y="266.370633" style="stroke: #000000; stroke-width: 0.8"/>
      </g>
     </g>
     <g id="text_9">
      <!-- 16 -->
      <g transform="translate(295.303737 280.96907) scale(0.1 -0.1)">
       <use xlink:href="#DejaVuSans-31"/>
       <use xlink:href="#DejaVuSans-36" transform="translate(63.623047 0)"/>
      </g>
     </g>
    </g>
    <g id="xtick_10">
     <g id="line2d_10">
      <g>
       <use xlink:href="#m6e6191b74e" x="330.999676" y="266.370633" style="stroke: #000000; stroke-width: 0.8"/>
      </g>
     </g>
     <g id="text_10">
      <!-- 18 -->
      <g transform="translate(324.637176 280.96907) scale(0.1 -0.1)">
       <use xlink:href="#DejaVuSans-31"/>
       <use xlink:href="#DejaVuSans-38" transform="translate(63.623047 0)"/>
      </g>
     </g>
    </g>
    <g id="xtick_11">
     <g id="line2d_11">
      <g>
       <use xlink:href="#m6e6191b74e" x="360.333115" y="266.370633" style="stroke: #000000; stroke-width: 0.8"/>
      </g>
     </g>
     <g id="text_11">
      <!-- 20 -->
      <g transform="translate(353.970615 280.96907) scale(0.1 -0.1)">
       <use xlink:href="#DejaVuSans-32"/>
       <use xlink:href="#DejaVuSans-30" transform="translate(63.623047 0)"/>
      </g>
     </g>
    </g>
    <g id="xtick_12">
     <g id="line2d_12">
      <g>
       <use xlink:href="#m6e6191b74e" x="389.666553" y="266.370633" style="stroke: #000000; stroke-width: 0.8"/>
      </g>
     </g>
     <g id="text_12">
      <!-- 22 -->
      <g transform="translate(383.304053 280.96907) scale(0.1 -0.1)">
       <use xlink:href="#DejaVuSans-32"/>
       <use xlink:href="#DejaVuSans-32" transform="translate(63.623047 0)"/>
      </g>
     </g>
    </g>
   </g>
   <g id="matplotlib.axis_2">
    <g id="ytick_1">
     <g id="line2d_13">
      <defs>
       <path id="md6e13694a5" d="M 0 0 
L -3.5 0 
" style="stroke: #000000; stroke-width: 0.8"/>
      </defs>
      <g>
       <use xlink:href="#md6e13694a5" x="50.132" y="236.722158" style="stroke: #000000; stroke-width: 0.8"/>
      </g>
     </g>
     <g id="text_13">
      <!-- 20 -->
      <g transform="translate(30.407 240.521376) scale(0.1 -0.1)">
       <use xlink:href="#DejaVuSans-32"/>
       <use xlink:href="#DejaVuSans-30" transform="translate(63.623047 0)"/>
      </g>
     </g>
    </g>
    <g id="ytick_2">
     <g id="line2d_14">
      <g>
       <use xlink:href="#md6e13694a5" x="50.132" y="202.171857" style="stroke: #000000; stroke-width: 0.8"/>
      </g>
     </g>
     <g id="text_14">
      <!-- 25 -->
      <g transform="translate(30.407 205.971076) scale(0.1 -0.1)">
       <defs>
        <path id="DejaVuSans-35" d="M 691 4666 
L 3169 4666 
L 3169 4134 
L 1269 4134 
L 1269 2991 
Q 1406 3038 1543 3061 
Q 1681 3084 1819 3084 
Q 2600 3084 3056 2656 
Q 3513 2228 3513 1497 
Q 3513 744 3044 326 
Q 2575 -91 1722 -91 
Q 1428 -91 1123 -41 
Q 819 9 494 109 
L 494 744 
Q 775 591 1075 516 
Q 1375 441 1709 441 
Q 2250 441 2565 725 
Q 2881 1009 2881 1497 
Q 2881 1984 2565 2268 
Q 2250 2553 1709 2553 
Q 1456 2553 1204 2497 
Q 953 2441 691 2322 
L 691 4666 
z
" transform="scale(0.015625)"/>
       </defs>
       <use xlink:href="#DejaVuSans-32"/>
       <use xlink:href="#DejaVuSans-35" transform="translate(63.623047 0)"/>
      </g>
     </g>
    </g>
    <g id="ytick_3">
     <g id="line2d_15">
      <g>
       <use xlink:href="#md6e13694a5" x="50.132" y="167.621557" style="stroke: #000000; stroke-width: 0.8"/>
      </g>
     </g>
     <g id="text_15">
      <!-- 30 -->
      <g transform="translate(30.407 171.420776) scale(0.1 -0.1)">
       <defs>
        <path id="DejaVuSans-33" d="M 2597 2516 
Q 3050 2419 3304 2112 
Q 3559 1806 3559 1356 
Q 3559 666 3084 287 
Q 2609 -91 1734 -91 
Q 1441 -91 1130 -33 
Q 819 25 488 141 
L 488 750 
Q 750 597 1062 519 
Q 1375 441 1716 441 
Q 2309 441 2620 675 
Q 2931 909 2931 1356 
Q 2931 1769 2642 2001 
Q 2353 2234 1838 2234 
L 1294 2234 
L 1294 2753 
L 1863 2753 
Q 2328 2753 2575 2939 
Q 2822 3125 2822 3475 
Q 2822 3834 2567 4026 
Q 2313 4219 1838 4219 
Q 1578 4219 1281 4162 
Q 984 4106 628 3988 
L 628 4550 
Q 988 4650 1302 4700 
Q 1616 4750 1894 4750 
Q 2613 4750 3031 4423 
Q 3450 4097 3450 3541 
Q 3450 3153 3228 2886 
Q 3006 2619 2597 2516 
z
" transform="scale(0.015625)"/>
       </defs>
       <use xlink:href="#DejaVuSans-33"/>
       <use xlink:href="#DejaVuSans-30" transform="translate(63.623047 0)"/>
      </g>
     </g>
    </g>
    <g id="ytick_4">
     <g id="line2d_16">
      <g>
       <use xlink:href="#md6e13694a5" x="50.132" y="133.071257" style="stroke: #000000; stroke-width: 0.8"/>
      </g>
     </g>
     <g id="text_16">
      <!-- 35 -->
      <g transform="translate(30.407 136.870476) scale(0.1 -0.1)">
       <use xlink:href="#DejaVuSans-33"/>
       <use xlink:href="#DejaVuSans-35" transform="translate(63.623047 0)"/>
      </g>
     </g>
    </g>
    <g id="ytick_5">
     <g id="line2d_17">
      <g>
       <use xlink:href="#md6e13694a5" x="50.132" y="98.520957" style="stroke: #000000; stroke-width: 0.8"/>
      </g>
     </g>
     <g id="text_17">
      <!-- 40 -->
      <g transform="translate(30.407 102.320176) scale(0.1 -0.1)">
       <use xlink:href="#DejaVuSans-34"/>
       <use xlink:href="#DejaVuSans-30" transform="translate(63.623047 0)"/>
      </g>
     </g>
    </g>
    <g id="ytick_6">
     <g id="line2d_18">
      <g>
       <use xlink:href="#md6e13694a5" x="50.132" y="63.970657" style="stroke: #000000; stroke-width: 0.8"/>
      </g>
     </g>
     <g id="text_18">
      <!-- 45 -->
      <g transform="translate(30.407 67.769876) scale(0.1 -0.1)">
       <use xlink:href="#DejaVuSans-34"/>
       <use xlink:href="#DejaVuSans-35" transform="translate(63.623047 0)"/>
      </g>
     </g>
    </g>
    <g id="ytick_7">
     <g id="line2d_19">
      <g>
       <use xlink:href="#md6e13694a5" x="50.132" y="29.420357" style="stroke: #000000; stroke-width: 0.8"/>
      </g>
     </g>
     <g id="text_19">
      <!-- 50 -->
      <g transform="translate(30.407 33.219575) scale(0.1 -0.1)">
       <use xlink:href="#DejaVuSans-35"/>
       <use xlink:href="#DejaVuSans-30" transform="translate(63.623047 0)"/>
      </g>
     </g>
    </g>
    <g id="text_20">
     <!-- NO2 concentration ($\mu g\: m^{-3}$) -->
     <g transform="translate(24.307 218.035316) rotate(-90) scale(0.1 -0.1)">
      <defs>
       <path id="DejaVuSans-4e" d="M 628 4666 
L 1478 4666 
L 3547 763 
L 3547 4666 
L 4159 4666 
L 4159 0 
L 3309 0 
L 1241 3903 
L 1241 0 
L 628 0 
L 628 4666 
z
" transform="scale(0.015625)"/>
       <path id="DejaVuSans-4f" d="M 2522 4238 
Q 1834 4238 1429 3725 
Q 1025 3213 1025 2328 
Q 1025 1447 1429 934 
Q 1834 422 2522 422 
Q 3209 422 3611 934 
Q 4013 1447 4013 2328 
Q 4013 3213 3611 3725 
Q 3209 4238 2522 4238 
z
M 2522 4750 
Q 3503 4750 4090 4092 
Q 4678 3434 4678 2328 
Q 4678 1225 4090 567 
Q 3503 -91 2522 -91 
Q 1538 -91 948 565 
Q 359 1222 359 2328 
Q 359 3434 948 4092 
Q 1538 4750 2522 4750 
z
" transform="scale(0.015625)"/>
       <path id="DejaVuSans-20" transform="scale(0.015625)"/>
       <path id="DejaVuSans-63" d="M 3122 3366 
L 3122 2828 
Q 2878 2963 2633 3030 
Q 2388 3097 2138 3097 
Q 1578 3097 1268 2742 
Q 959 2388 959 1747 
Q 959 1106 1268 751 
Q 1578 397 2138 397 
Q 2388 397 2633 464 
Q 2878 531 3122 666 
L 3122 134 
Q 2881 22 2623 -34 
Q 2366 -91 2075 -91 
Q 1284 -91 818 406 
Q 353 903 353 1747 
Q 353 2603 823 3093 
Q 1294 3584 2113 3584 
Q 2378 3584 2631 3529 
Q 2884 3475 3122 3366 
z
" transform="scale(0.015625)"/>
       <path id="DejaVuSans-6f" d="M 1959 3097 
Q 1497 3097 1228 2736 
Q 959 2375 959 1747 
Q 959 1119 1226 758 
Q 1494 397 1959 397 
Q 2419 397 2687 759 
Q 2956 1122 2956 1747 
Q 2956 2369 2687 2733 
Q 2419 3097 1959 3097 
z
M 1959 3584 
Q 2709 3584 3137 3096 
Q 3566 2609 3566 1747 
Q 3566 888 3137 398 
Q 2709 -91 1959 -91 
Q 1206 -91 779 398 
Q 353 888 353 1747 
Q 353 2609 779 3096 
Q 1206 3584 1959 3584 
z
" transform="scale(0.015625)"/>
       <path id="DejaVuSans-6e" d="M 3513 2113 
L 3513 0 
L 2938 0 
L 2938 2094 
Q 2938 2591 2744 2837 
Q 2550 3084 2163 3084 
Q 1697 3084 1428 2787 
Q 1159 2491 1159 1978 
L 1159 0 
L 581 0 
L 581 3500 
L 1159 3500 
L 1159 2956 
Q 1366 3272 1645 3428 
Q 1925 3584 2291 3584 
Q 2894 3584 3203 3211 
Q 3513 2838 3513 2113 
z
" transform="scale(0.015625)"/>
       <path id="DejaVuSans-65" d="M 3597 1894 
L 3597 1613 
L 953 1613 
Q 991 1019 1311 708 
Q 1631 397 2203 397 
Q 2534 397 2845 478 
Q 3156 559 3463 722 
L 3463 178 
Q 3153 47 2828 -22 
Q 2503 -91 2169 -91 
Q 1331 -91 842 396 
Q 353 884 353 1716 
Q 353 2575 817 3079 
Q 1281 3584 2069 3584 
Q 2775 3584 3186 3129 
Q 3597 2675 3597 1894 
z
M 3022 2063 
Q 3016 2534 2758 2815 
Q 2500 3097 2075 3097 
Q 1594 3097 1305 2825 
Q 1016 2553 972 2059 
L 3022 2063 
z
" transform="scale(0.015625)"/>
       <path id="DejaVuSans-74" d="M 1172 4494 
L 1172 3500 
L 2356 3500 
L 2356 3053 
L 1172 3053 
L 1172 1153 
Q 1172 725 1289 603 
Q 1406 481 1766 481 
L 2356 481 
L 2356 0 
L 1766 0 
Q 1100 0 847 248 
Q 594 497 594 1153 
L 594 3053 
L 172 3053 
L 172 3500 
L 594 3500 
L 594 4494 
L 1172 4494 
z
" transform="scale(0.015625)"/>
       <path id="DejaVuSans-72" d="M 2631 2963 
Q 2534 3019 2420 3045 
Q 2306 3072 2169 3072 
Q 1681 3072 1420 2755 
Q 1159 2438 1159 1844 
L 1159 0 
L 581 0 
L 581 3500 
L 1159 3500 
L 1159 2956 
Q 1341 3275 1631 3429 
Q 1922 3584 2338 3584 
Q 2397 3584 2469 3576 
Q 2541 3569 2628 3553 
L 2631 2963 
z
" transform="scale(0.015625)"/>
       <path id="DejaVuSans-61" d="M 2194 1759 
Q 1497 1759 1228 1600 
Q 959 1441 959 1056 
Q 959 750 1161 570 
Q 1363 391 1709 391 
Q 2188 391 2477 730 
Q 2766 1069 2766 1631 
L 2766 1759 
L 2194 1759 
z
M 3341 1997 
L 3341 0 
L 2766 0 
L 2766 531 
Q 2569 213 2275 61 
Q 1981 -91 1556 -91 
Q 1019 -91 701 211 
Q 384 513 384 1019 
Q 384 1609 779 1909 
Q 1175 2209 1959 2209 
L 2766 2209 
L 2766 2266 
Q 2766 2663 2505 2880 
Q 2244 3097 1772 3097 
Q 1472 3097 1187 3025 
Q 903 2953 641 2809 
L 641 3341 
Q 956 3463 1253 3523 
Q 1550 3584 1831 3584 
Q 2591 3584 2966 3190 
Q 3341 2797 3341 1997 
z
" transform="scale(0.015625)"/>
       <path id="DejaVuSans-69" d="M 603 3500 
L 1178 3500 
L 1178 0 
L 603 0 
L 603 3500 
z
M 603 4863 
L 1178 4863 
L 1178 4134 
L 603 4134 
L 603 4863 
z
" transform="scale(0.015625)"/>
       <path id="DejaVuSans-28" d="M 1984 4856 
Q 1566 4138 1362 3434 
Q 1159 2731 1159 2009 
Q 1159 1288 1364 580 
Q 1569 -128 1984 -844 
L 1484 -844 
Q 1016 -109 783 600 
Q 550 1309 550 2009 
Q 550 2706 781 3412 
Q 1013 4119 1484 4856 
L 1984 4856 
z
" transform="scale(0.015625)"/>
       <path id="DejaVuSans-Oblique-3bc" d="M -84 -1331 
L 856 3500 
L 1434 3500 
L 1009 1322 
Q 997 1256 987 1175 
Q 978 1094 978 1013 
Q 978 722 1161 565 
Q 1344 409 1684 409 
Q 2147 409 2431 671 
Q 2716 934 2816 1459 
L 3213 3500 
L 3788 3500 
L 3266 809 
Q 3253 750 3248 706 
Q 3244 663 3244 628 
Q 3244 531 3283 486 
Q 3322 441 3406 441 
Q 3438 441 3492 456 
Q 3547 472 3647 513 
L 3559 50 
Q 3422 -19 3297 -55 
Q 3172 -91 3053 -91 
Q 2847 -91 2730 40 
Q 2613 172 2613 403 
Q 2438 153 2195 31 
Q 1953 -91 1625 -91 
Q 1334 -91 1117 43 
Q 900 178 831 397 
L 494 -1331 
L -84 -1331 
z
" transform="scale(0.015625)"/>
       <path id="DejaVuSans-Oblique-67" d="M 3816 3500 
L 3219 434 
Q 3047 -456 2561 -893 
Q 2075 -1331 1253 -1331 
Q 950 -1331 690 -1286 
Q 431 -1241 206 -1147 
L 313 -588 
Q 525 -725 762 -790 
Q 1000 -856 1269 -856 
Q 1816 -856 2167 -557 
Q 2519 -259 2631 300 
L 2681 563 
Q 2441 288 2122 144 
Q 1803 0 1434 0 
Q 903 0 598 351 
Q 294 703 294 1319 
Q 294 1803 478 2267 
Q 663 2731 997 3091 
Q 1219 3328 1514 3456 
Q 1809 3584 2131 3584 
Q 2484 3584 2746 3420 
Q 3009 3256 3138 2956 
L 3238 3500 
L 3816 3500 
z
M 2950 2216 
Q 2950 2641 2750 2872 
Q 2550 3103 2181 3103 
Q 1953 3103 1747 3012 
Q 1541 2922 1394 2759 
Q 1156 2491 1023 2127 
Q 891 1763 891 1375 
Q 891 944 1092 712 
Q 1294 481 1672 481 
Q 2219 481 2584 976 
Q 2950 1472 2950 2216 
z
" transform="scale(0.015625)"/>
       <path id="DejaVuSans-Oblique-6d" d="M 5747 2113 
L 5338 0 
L 4763 0 
L 5166 2094 
Q 5191 2228 5203 2325 
Q 5216 2422 5216 2491 
Q 5216 2772 5059 2928 
Q 4903 3084 4622 3084 
Q 4203 3084 3875 2770 
Q 3547 2456 3450 1953 
L 3066 0 
L 2491 0 
L 2900 2094 
Q 2925 2209 2937 2307 
Q 2950 2406 2950 2484 
Q 2950 2769 2794 2926 
Q 2638 3084 2363 3084 
Q 1938 3084 1609 2770 
Q 1281 2456 1184 1953 
L 800 0 
L 225 0 
L 909 3500 
L 1484 3500 
L 1375 2956 
Q 1609 3263 1923 3423 
Q 2238 3584 2597 3584 
Q 2978 3584 3223 3384 
Q 3469 3184 3519 2828 
Q 3781 3197 4126 3390 
Q 4472 3584 4856 3584 
Q 5306 3584 5551 3325 
Q 5797 3066 5797 2591 
Q 5797 2488 5784 2364 
Q 5772 2241 5747 2113 
z
" transform="scale(0.015625)"/>
       <path id="DejaVuSans-2212" d="M 678 2272 
L 4684 2272 
L 4684 1741 
L 678 1741 
L 678 2272 
z
" transform="scale(0.015625)"/>
       <path id="DejaVuSans-29" d="M 513 4856 
L 1013 4856 
Q 1481 4119 1714 3412 
Q 1947 2706 1947 2009 
Q 1947 1309 1714 600 
Q 1481 -109 1013 -844 
L 513 -844 
Q 928 -128 1133 580 
Q 1338 1288 1338 2009 
Q 1338 2731 1133 3434 
Q 928 4138 513 4856 
z
" transform="scale(0.015625)"/>
      </defs>
      <use xlink:href="#DejaVuSans-4e" transform="translate(0 0.765625)"/>
      <use xlink:href="#DejaVuSans-4f" transform="translate(74.804688 0.765625)"/>
      <use xlink:href="#DejaVuSans-32" transform="translate(153.515625 0.765625)"/>
      <use xlink:href="#DejaVuSans-20" transform="translate(217.138672 0.765625)"/>
      <use xlink:href="#DejaVuSans-63" transform="translate(248.925781 0.765625)"/>
      <use xlink:href="#DejaVuSans-6f" transform="translate(303.90625 0.765625)"/>
      <use xlink:href="#DejaVuSans-6e" transform="translate(365.087891 0.765625)"/>
      <use xlink:href="#DejaVuSans-63" transform="translate(428.466797 0.765625)"/>
      <use xlink:href="#DejaVuSans-65" transform="translate(483.447266 0.765625)"/>
      <use xlink:href="#DejaVuSans-6e" transform="translate(544.970703 0.765625)"/>
      <use xlink:href="#DejaVuSans-74" transform="translate(608.349609 0.765625)"/>
      <use xlink:href="#DejaVuSans-72" transform="translate(647.558594 0.765625)"/>
      <use xlink:href="#DejaVuSans-61" transform="translate(688.671875 0.765625)"/>
      <use xlink:href="#DejaVuSans-74" transform="translate(749.951172 0.765625)"/>
      <use xlink:href="#DejaVuSans-69" transform="translate(789.160156 0.765625)"/>
      <use xlink:href="#DejaVuSans-6f" transform="translate(816.943359 0.765625)"/>
      <use xlink:href="#DejaVuSans-6e" transform="translate(878.125 0.765625)"/>
      <use xlink:href="#DejaVuSans-20" transform="translate(941.503906 0.765625)"/>
      <use xlink:href="#DejaVuSans-28" transform="translate(973.291016 0.765625)"/>
      <use xlink:href="#DejaVuSans-Oblique-3bc" transform="translate(1012.304688 0.765625)"/>
      <use xlink:href="#DejaVuSans-Oblique-67" transform="translate(1075.927734 0.765625)"/>
      <use xlink:href="#DejaVuSans-Oblique-6d" transform="translate(1161.051216 0.765625)"/>
      <use xlink:href="#DejaVuSans-2212" transform="translate(1263.113221 39.046875) scale(0.7)"/>
      <use xlink:href="#DejaVuSans-33" transform="translate(1321.765565 39.046875) scale(0.7)"/>
      <use xlink:href="#DejaVuSans-29" transform="translate(1369.036073 0.765625)"/>
     </g>
    </g>
   </g>
   <g id="line2d_20">
    <path d="M 66.998727 237.905527 
L 81.665447 239.607307 
L 96.332166 248.170574 
L 110.998885 251.296971 
L 125.665605 235.275057 
L 140.332324 190.514698 
L 154.999043 132.035209 
L 169.665763 109.237401 
L 184.332482 115.442827 
L 198.999202 124.356854 
L 213.665921 124.368666 
L 228.33264 121.517949 
L 242.99936 119.650156 
L 257.666079 111.91323 
L 272.332798 102.038877 
L 286.999518 88.479371 
L 301.666237 85.538101 
L 316.332957 97.108107 
L 330.999676 114.666309 
L 345.666395 124.415013 
L 360.333115 134.705244 
L 374.999834 148.15708 
L 389.666553 169.562775 
L 404.333273 202.45409 
" clip-path="url(#pef3da4f25f)" style="fill: none; stroke: #0000ff; stroke-width: 1.5; stroke-linecap: square"/>
   </g>
   <g id="line2d_21">
    <path d="M 66.998727 217.943755 
L 81.665447 225.6494 
L 96.332166 236.478126 
L 110.998885 239.610102 
L 125.665605 226.057494 
L 140.332324 186.365588 
L 154.999043 123.247856 
L 169.665763 78.747847 
L 184.332482 72.6521 
L 198.999202 81.392399 
L 213.665921 86.642133 
L 228.33264 87.409305 
L 242.99936 86.20002 
L 257.666079 83.236904 
L 272.332798 70.804858 
L 286.999518 59.006135 
L 301.666237 52.489421 
L 316.332957 57.581249 
L 330.999676 71.650299 
L 345.666395 88.455791 
L 360.333115 105.638225 
L 374.999834 122.899016 
L 389.666553 147.118701 
L 404.333273 180.114184 
" clip-path="url(#pef3da4f25f)" style="fill: none; stroke: #000000; stroke-width: 1.5; stroke-linecap: square"/>
   </g>
   <g id="line2d_22">
    <path d="M 66.998727 219.127759 
L 81.665447 228.078926 
L 96.332166 238.663278 
L 110.998885 243.444456 
L 125.665605 232.380969 
L 140.332324 191.678971 
L 154.999043 124.279171 
L 169.665763 70.22688 
L 184.332482 60.669276 
L 198.999202 75.645009 
L 213.665921 87.972775 
L 228.33264 93.700231 
L 242.99936 96.35381 
L 257.666079 93.029068 
L 272.332798 82.380155 
L 286.999518 61.736763 
L 301.666237 43.671062 
L 316.332957 43.807927 
L 330.999676 59.138716 
L 345.666395 83.687814 
L 360.333115 106.674657 
L 374.999834 123.869202 
L 389.666553 146.519574 
L 404.333273 180.299514 
" clip-path="url(#pef3da4f25f)" style="fill: none; stroke: #ff0000; stroke-width: 1.5; stroke-linecap: square"/>
   </g>
   <g id="patch_3">
    <path d="M 50.132 266.370633 
L 50.132 28.8 
" style="fill: none; stroke: #000000; stroke-width: 0.8; stroke-linejoin: miter; stroke-linecap: square"/>
   </g>
   <g id="patch_4">
    <path d="M 421.2 266.370633 
L 421.2 28.8 
" style="fill: none; stroke: #000000; stroke-width: 0.8; stroke-linejoin: miter; stroke-linecap: square"/>
   </g>
   <g id="patch_5">
    <path d="M 50.132 266.370633 
L 421.2 266.370633 
" style="fill: none; stroke: #000000; stroke-width: 0.8; stroke-linejoin: miter; stroke-linecap: square"/>
   </g>
   <g id="patch_6">
    <path d="M 50.132 28.8 
L 421.2 28.8 
" style="fill: none; stroke: #000000; stroke-width: 0.8; stroke-linejoin: miter; stroke-linecap: square"/>
   </g>
   <g id="text_21">
    <g id="patch_7">
     <path d="M 53.132 46.478125 
L 68.996063 46.478125 
L 68.996063 30.8 
L 53.132 30.8 
z
" style="fill: #b2b2b2"/>
    </g>
    <!-- a) -->
    <g transform="translate(56.132 41.398438) scale(0.1 -0.1)">
     <defs>
      <path id="DejaVuSerif-61" d="M 2547 1044 
L 2547 1747 
L 1806 1747 
Q 1378 1747 1168 1562 
Q 959 1378 959 997 
Q 959 650 1171 447 
Q 1384 244 1747 244 
Q 2106 244 2326 466 
Q 2547 688 2547 1044 
z
M 3122 2075 
L 3122 331 
L 3634 331 
L 3634 0 
L 2547 0 
L 2547 359 
Q 2356 128 2106 18 
Q 1856 -91 1522 -91 
Q 969 -91 644 203 
Q 319 497 319 997 
Q 319 1513 691 1797 
Q 1063 2081 1741 2081 
L 2547 2081 
L 2547 2309 
Q 2547 2688 2317 2895 
Q 2088 3103 1672 3103 
Q 1328 3103 1125 2947 
Q 922 2791 872 2484 
L 575 2484 
L 575 3156 
Q 875 3284 1158 3348 
Q 1441 3413 1709 3413 
Q 2400 3413 2761 3070 
Q 3122 2728 3122 2075 
z
" transform="scale(0.015625)"/>
      <path id="DejaVuSerif-29" d="M 453 -997 
L 453 -691 
Q 934 -359 1145 242 
Q 1356 844 1356 1931 
Q 1356 3022 1145 3623 
Q 934 4225 453 4556 
L 453 4863 
Q 1216 4522 1603 3783 
Q 1991 3044 1991 1931 
Q 1991 822 1603 83 
Q 1216 -656 453 -997 
z
" transform="scale(0.015625)"/>
     </defs>
     <use xlink:href="#DejaVuSerif-61"/>
     <use xlink:href="#DejaVuSerif-29" transform="translate(59.619141 0)"/>
    </g>
   </g>
   <g id="legend_1">
    <g id="patch_8">
     <path d="M 245.682812 261.370633 
L 414.2 261.370633 
Q 416.2 261.370633 416.2 259.370633 
L 416.2 216.336258 
Q 416.2 214.336258 414.2 214.336258 
L 245.682812 214.336258 
Q 243.682812 214.336258 243.682812 216.336258 
L 243.682812 259.370633 
Q 243.682812 261.370633 245.682812 261.370633 
z
" style="fill: #ffffff; opacity: 0.8; stroke: #cccccc; stroke-linejoin: miter"/>
    </g>
    <g id="line2d_23">
     <path d="M 247.682812 222.434695 
L 257.682812 222.434695 
L 267.682812 222.434695 
" style="fill: none; stroke: #0000ff; stroke-width: 1.5; stroke-linecap: square"/>
    </g>
    <g id="text_22">
     <!-- Out of term -->
     <g transform="translate(275.682812 225.934695) scale(0.1 -0.1)">
      <defs>
       <path id="DejaVuSans-75" d="M 544 1381 
L 544 3500 
L 1119 3500 
L 1119 1403 
Q 1119 906 1312 657 
Q 1506 409 1894 409 
Q 2359 409 2629 706 
Q 2900 1003 2900 1516 
L 2900 3500 
L 3475 3500 
L 3475 0 
L 2900 0 
L 2900 538 
Q 2691 219 2414 64 
Q 2138 -91 1772 -91 
Q 1169 -91 856 284 
Q 544 659 544 1381 
z
M 1991 3584 
L 1991 3584 
z
" transform="scale(0.015625)"/>
       <path id="DejaVuSans-66" d="M 2375 4863 
L 2375 4384 
L 1825 4384 
Q 1516 4384 1395 4259 
Q 1275 4134 1275 3809 
L 1275 3500 
L 2222 3500 
L 2222 3053 
L 1275 3053 
L 1275 0 
L 697 0 
L 697 3053 
L 147 3053 
L 147 3500 
L 697 3500 
L 697 3744 
Q 697 4328 969 4595 
Q 1241 4863 1831 4863 
L 2375 4863 
z
" transform="scale(0.015625)"/>
       <path id="DejaVuSans-6d" d="M 3328 2828 
Q 3544 3216 3844 3400 
Q 4144 3584 4550 3584 
Q 5097 3584 5394 3201 
Q 5691 2819 5691 2113 
L 5691 0 
L 5113 0 
L 5113 2094 
Q 5113 2597 4934 2840 
Q 4756 3084 4391 3084 
Q 3944 3084 3684 2787 
Q 3425 2491 3425 1978 
L 3425 0 
L 2847 0 
L 2847 2094 
Q 2847 2600 2669 2842 
Q 2491 3084 2119 3084 
Q 1678 3084 1418 2786 
Q 1159 2488 1159 1978 
L 1159 0 
L 581 0 
L 581 3500 
L 1159 3500 
L 1159 2956 
Q 1356 3278 1631 3431 
Q 1906 3584 2284 3584 
Q 2666 3584 2933 3390 
Q 3200 3197 3328 2828 
z
" transform="scale(0.015625)"/>
      </defs>
      <use xlink:href="#DejaVuSans-4f"/>
      <use xlink:href="#DejaVuSans-75" transform="translate(78.710938 0)"/>
      <use xlink:href="#DejaVuSans-74" transform="translate(142.089844 0)"/>
      <use xlink:href="#DejaVuSans-20" transform="translate(181.298828 0)"/>
      <use xlink:href="#DejaVuSans-6f" transform="translate(213.085938 0)"/>
      <use xlink:href="#DejaVuSans-66" transform="translate(274.267578 0)"/>
      <use xlink:href="#DejaVuSans-20" transform="translate(309.472656 0)"/>
      <use xlink:href="#DejaVuSans-74" transform="translate(341.259766 0)"/>
      <use xlink:href="#DejaVuSans-65" transform="translate(380.46875 0)"/>
      <use xlink:href="#DejaVuSans-72" transform="translate(441.992188 0)"/>
      <use xlink:href="#DejaVuSans-6d" transform="translate(481.355469 0)"/>
     </g>
    </g>
    <g id="line2d_24">
     <path d="M 247.682812 237.11282 
L 257.682812 237.11282 
L 267.682812 237.11282 
" style="fill: none; stroke: #000000; stroke-width: 1.5; stroke-linecap: square"/>
    </g>
    <g id="text_23">
     <!-- State school term only -->
     <g transform="translate(275.682812 240.61282) scale(0.1 -0.1)">
      <defs>
       <path id="DejaVuSans-53" d="M 3425 4513 
L 3425 3897 
Q 3066 4069 2747 4153 
Q 2428 4238 2131 4238 
Q 1616 4238 1336 4038 
Q 1056 3838 1056 3469 
Q 1056 3159 1242 3001 
Q 1428 2844 1947 2747 
L 2328 2669 
Q 3034 2534 3370 2195 
Q 3706 1856 3706 1288 
Q 3706 609 3251 259 
Q 2797 -91 1919 -91 
Q 1588 -91 1214 -16 
Q 841 59 441 206 
L 441 856 
Q 825 641 1194 531 
Q 1563 422 1919 422 
Q 2459 422 2753 634 
Q 3047 847 3047 1241 
Q 3047 1584 2836 1778 
Q 2625 1972 2144 2069 
L 1759 2144 
Q 1053 2284 737 2584 
Q 422 2884 422 3419 
Q 422 4038 858 4394 
Q 1294 4750 2059 4750 
Q 2388 4750 2728 4690 
Q 3069 4631 3425 4513 
z
" transform="scale(0.015625)"/>
       <path id="DejaVuSans-73" d="M 2834 3397 
L 2834 2853 
Q 2591 2978 2328 3040 
Q 2066 3103 1784 3103 
Q 1356 3103 1142 2972 
Q 928 2841 928 2578 
Q 928 2378 1081 2264 
Q 1234 2150 1697 2047 
L 1894 2003 
Q 2506 1872 2764 1633 
Q 3022 1394 3022 966 
Q 3022 478 2636 193 
Q 2250 -91 1575 -91 
Q 1294 -91 989 -36 
Q 684 19 347 128 
L 347 722 
Q 666 556 975 473 
Q 1284 391 1588 391 
Q 1994 391 2212 530 
Q 2431 669 2431 922 
Q 2431 1156 2273 1281 
Q 2116 1406 1581 1522 
L 1381 1569 
Q 847 1681 609 1914 
Q 372 2147 372 2553 
Q 372 3047 722 3315 
Q 1072 3584 1716 3584 
Q 2034 3584 2315 3537 
Q 2597 3491 2834 3397 
z
" transform="scale(0.015625)"/>
       <path id="DejaVuSans-68" d="M 3513 2113 
L 3513 0 
L 2938 0 
L 2938 2094 
Q 2938 2591 2744 2837 
Q 2550 3084 2163 3084 
Q 1697 3084 1428 2787 
Q 1159 2491 1159 1978 
L 1159 0 
L 581 0 
L 581 4863 
L 1159 4863 
L 1159 2956 
Q 1366 3272 1645 3428 
Q 1925 3584 2291 3584 
Q 2894 3584 3203 3211 
Q 3513 2838 3513 2113 
z
" transform="scale(0.015625)"/>
       <path id="DejaVuSans-6c" d="M 603 4863 
L 1178 4863 
L 1178 0 
L 603 0 
L 603 4863 
z
" transform="scale(0.015625)"/>
       <path id="DejaVuSans-79" d="M 2059 -325 
Q 1816 -950 1584 -1140 
Q 1353 -1331 966 -1331 
L 506 -1331 
L 506 -850 
L 844 -850 
Q 1081 -850 1212 -737 
Q 1344 -625 1503 -206 
L 1606 56 
L 191 3500 
L 800 3500 
L 1894 763 
L 2988 3500 
L 3597 3500 
L 2059 -325 
z
" transform="scale(0.015625)"/>
      </defs>
      <use xlink:href="#DejaVuSans-53"/>
      <use xlink:href="#DejaVuSans-74" transform="translate(63.476562 0)"/>
      <use xlink:href="#DejaVuSans-61" transform="translate(102.685547 0)"/>
      <use xlink:href="#DejaVuSans-74" transform="translate(163.964844 0)"/>
      <use xlink:href="#DejaVuSans-65" transform="translate(203.173828 0)"/>
      <use xlink:href="#DejaVuSans-20" transform="translate(264.697266 0)"/>
      <use xlink:href="#DejaVuSans-73" transform="translate(296.484375 0)"/>
      <use xlink:href="#DejaVuSans-63" transform="translate(348.583984 0)"/>
      <use xlink:href="#DejaVuSans-68" transform="translate(403.564453 0)"/>
      <use xlink:href="#DejaVuSans-6f" transform="translate(466.943359 0)"/>
      <use xlink:href="#DejaVuSans-6f" transform="translate(528.125 0)"/>
      <use xlink:href="#DejaVuSans-6c" transform="translate(589.306641 0)"/>
      <use xlink:href="#DejaVuSans-20" transform="translate(617.089844 0)"/>
      <use xlink:href="#DejaVuSans-74" transform="translate(648.876953 0)"/>
      <use xlink:href="#DejaVuSans-65" transform="translate(688.085938 0)"/>
      <use xlink:href="#DejaVuSans-72" transform="translate(749.609375 0)"/>
      <use xlink:href="#DejaVuSans-6d" transform="translate(788.972656 0)"/>
      <use xlink:href="#DejaVuSans-20" transform="translate(886.384766 0)"/>
      <use xlink:href="#DejaVuSans-6f" transform="translate(918.171875 0)"/>
      <use xlink:href="#DejaVuSans-6e" transform="translate(979.353516 0)"/>
      <use xlink:href="#DejaVuSans-6c" transform="translate(1042.732422 0)"/>
      <use xlink:href="#DejaVuSans-79" transform="translate(1070.515625 0)"/>
     </g>
    </g>
    <g id="line2d_25">
     <path d="M 247.682812 251.790945 
L 257.682812 251.790945 
L 267.682812 251.790945 
" style="fill: none; stroke: #ff0000; stroke-width: 1.5; stroke-linecap: square"/>
    </g>
    <g id="text_24">
     <!-- Private &amp; state school term -->
     <g transform="translate(275.682812 255.290945) scale(0.1 -0.1)">
      <defs>
       <path id="DejaVuSans-50" d="M 1259 4147 
L 1259 2394 
L 2053 2394 
Q 2494 2394 2734 2622 
Q 2975 2850 2975 3272 
Q 2975 3691 2734 3919 
Q 2494 4147 2053 4147 
L 1259 4147 
z
M 628 4666 
L 2053 4666 
Q 2838 4666 3239 4311 
Q 3641 3956 3641 3272 
Q 3641 2581 3239 2228 
Q 2838 1875 2053 1875 
L 1259 1875 
L 1259 0 
L 628 0 
L 628 4666 
z
" transform="scale(0.015625)"/>
       <path id="DejaVuSans-76" d="M 191 3500 
L 800 3500 
L 1894 563 
L 2988 3500 
L 3597 3500 
L 2284 0 
L 1503 0 
L 191 3500 
z
" transform="scale(0.015625)"/>
       <path id="DejaVuSans-26" d="M 1556 2509 
Q 1272 2256 1139 2004 
Q 1006 1753 1006 1478 
Q 1006 1022 1337 719 
Q 1669 416 2169 416 
Q 2466 416 2725 514 
Q 2984 613 3213 813 
L 1556 2509 
z
M 1997 2859 
L 3584 1234 
Q 3769 1513 3872 1830 
Q 3975 2147 3994 2503 
L 4575 2503 
Q 4538 2091 4375 1687 
Q 4213 1284 3922 891 
L 4794 0 
L 4006 0 
L 3559 459 
Q 3234 181 2878 45 
Q 2522 -91 2113 -91 
Q 1359 -91 881 339 
Q 403 769 403 1441 
Q 403 1841 612 2192 
Q 822 2544 1241 2853 
Q 1091 3050 1012 3245 
Q 934 3441 934 3628 
Q 934 4134 1281 4442 
Q 1628 4750 2203 4750 
Q 2463 4750 2720 4694 
Q 2978 4638 3244 4525 
L 3244 3956 
Q 2972 4103 2725 4179 
Q 2478 4256 2266 4256 
Q 1938 4256 1733 4082 
Q 1528 3909 1528 3634 
Q 1528 3475 1620 3314 
Q 1713 3153 1997 2859 
z
" transform="scale(0.015625)"/>
      </defs>
      <use xlink:href="#DejaVuSans-50"/>
      <use xlink:href="#DejaVuSans-72" transform="translate(58.552734 0)"/>
      <use xlink:href="#DejaVuSans-69" transform="translate(99.666016 0)"/>
      <use xlink:href="#DejaVuSans-76" transform="translate(127.449219 0)"/>
      <use xlink:href="#DejaVuSans-61" transform="translate(186.628906 0)"/>
      <use xlink:href="#DejaVuSans-74" transform="translate(247.908203 0)"/>
      <use xlink:href="#DejaVuSans-65" transform="translate(287.117188 0)"/>
      <use xlink:href="#DejaVuSans-20" transform="translate(348.640625 0)"/>
      <use xlink:href="#DejaVuSans-26" transform="translate(380.427734 0)"/>
      <use xlink:href="#DejaVuSans-20" transform="translate(458.40625 0)"/>
      <use xlink:href="#DejaVuSans-73" transform="translate(490.193359 0)"/>
      <use xlink:href="#DejaVuSans-74" transform="translate(542.292969 0)"/>
      <use xlink:href="#DejaVuSans-61" transform="translate(581.501953 0)"/>
      <use xlink:href="#DejaVuSans-74" transform="translate(642.78125 0)"/>
      <use xlink:href="#DejaVuSans-65" transform="translate(681.990234 0)"/>
      <use xlink:href="#DejaVuSans-20" transform="translate(743.513672 0)"/>
      <use xlink:href="#DejaVuSans-73" transform="translate(775.300781 0)"/>
      <use xlink:href="#DejaVuSans-63" transform="translate(827.400391 0)"/>
      <use xlink:href="#DejaVuSans-68" transform="translate(882.380859 0)"/>
      <use xlink:href="#DejaVuSans-6f" transform="translate(945.759766 0)"/>
      <use xlink:href="#DejaVuSans-6f" transform="translate(1006.941406 0)"/>
      <use xlink:href="#DejaVuSans-6c" transform="translate(1068.123047 0)"/>
      <use xlink:href="#DejaVuSans-20" transform="translate(1095.90625 0)"/>
      <use xlink:href="#DejaVuSans-74" transform="translate(1127.693359 0)"/>
      <use xlink:href="#DejaVuSans-65" transform="translate(1166.902344 0)"/>
      <use xlink:href="#DejaVuSans-72" transform="translate(1228.425781 0)"/>
      <use xlink:href="#DejaVuSans-6d" transform="translate(1267.789062 0)"/>
     </g>
    </g>
   </g>
  </g>
  <g id="axes_2">
   <g id="patch_9">
    <path d="M 50.132 534.04 
L 421.2 534.04 
L 421.2 296.469367 
L 50.132 296.469367 
z
" style="fill: #ffffff"/>
   </g>
   <g id="FillBetweenPolyCollection_4">
    <defs>
     <path id="m0b4aa44c82" d="M 66.998727 -179.708968 
L 66.998727 -130.395432 
L 81.665447 -130.283118 
L 96.332166 -125.417072 
L 110.998885 -122.889187 
L 125.665605 -127.225546 
L 140.332324 -133.339956 
L 154.999043 -138.333988 
L 169.665763 -143.134754 
L 184.332482 -128.624846 
L 198.999202 -100.798882 
L 213.665921 -77.664355 
L 228.33264 -70.721654 
L 242.99936 -62.6899 
L 257.666079 -60.179807 
L 272.332798 -52.758665 
L 286.999518 -58.630484 
L 301.666237 -76.667102 
L 316.332957 -96.485491 
L 330.999676 -115.521449 
L 345.666395 -130.503352 
L 360.333115 -138.664434 
L 374.999834 -141.7928 
L 389.666553 -141.639807 
L 404.333273 -136.509176 
L 404.333273 -183.090325 
L 404.333273 -183.090325 
L 389.666553 -189.389653 
L 374.999834 -189.085576 
L 360.333115 -181.252244 
L 345.666395 -172.34513 
L 330.999676 -157.170496 
L 316.332957 -136.0089 
L 301.666237 -117.6851 
L 286.999518 -96.164448 
L 272.332798 -92.485945 
L 257.666079 -96.216545 
L 242.99936 -113.498182 
L 228.33264 -123.361745 
L 213.665921 -128.503926 
L 198.999202 -147.475636 
L 184.332482 -181.588682 
L 169.665763 -195.948159 
L 154.999043 -185.941111 
L 140.332324 -179.257658 
L 125.665605 -177.093833 
L 110.998885 -172.308854 
L 96.332166 -175.986051 
L 81.665447 -178.981555 
L 66.998727 -179.708968 
z
" style="stroke: #0000ff; stroke-opacity: 0.2"/>
    </defs>
    <g clip-path="url(#pa2265932f3)">
     <use xlink:href="#m0b4aa44c82" x="0" y="576" style="fill: #0000ff; fill-opacity: 0.2; stroke: #0000ff; stroke-opacity: 0.2"/>
    </g>
   </g>
   <g id="FillBetweenPolyCollection_5">
    <defs>
     <path id="m4aff86401c" d="M 66.998727 -225.892041 
L 66.998727 -145.917454 
L 81.665447 -138.705899 
L 96.332166 -141.306592 
L 110.998885 -136.383173 
L 125.665605 -126.872118 
L 140.332324 -137.885252 
L 154.999043 -151.14492 
L 169.665763 -153.279768 
L 184.332482 -147.894833 
L 198.999202 -120.210626 
L 213.665921 -115.947735 
L 228.33264 -98.205437 
L 242.99936 -93.2923 
L 257.666079 -76.49883 
L 272.332798 -71.218003 
L 286.999518 -74.858131 
L 301.666237 -80.156287 
L 316.332957 -113.282318 
L 330.999676 -133.646642 
L 345.666395 -145.269122 
L 360.333115 -162.200634 
L 374.999834 -172.850932 
L 389.666553 -163.636686 
L 404.333273 -153.761934 
L 404.333273 -244.624493 
L 404.333273 -244.624493 
L 389.666553 -242.27156 
L 374.999834 -247.348954 
L 360.333115 -231.558683 
L 345.666395 -214.251809 
L 330.999676 -199.685748 
L 316.332957 -175.079538 
L 301.666237 -137.85427 
L 286.999518 -137.134877 
L 272.332798 -128.536042 
L 257.666079 -141.223762 
L 242.99936 -156.346285 
L 228.33264 -166.269127 
L 213.665921 -191.501049 
L 198.999202 -196.803578 
L 184.332482 -231.521589 
L 169.665763 -233.606069 
L 154.999043 -226.259175 
L 140.332324 -215.236424 
L 125.665605 -206.212374 
L 110.998885 -221.707273 
L 96.332166 -226.926455 
L 81.665447 -224.753447 
L 66.998727 -225.892041 
z
" style="stroke: #000000; stroke-opacity: 0.2"/>
    </defs>
    <g clip-path="url(#pa2265932f3)">
     <use xlink:href="#m4aff86401c" x="0" y="576" style="fill-opacity: 0.2; stroke: #000000; stroke-opacity: 0.2"/>
    </g>
   </g>
   <g id="FillBetweenPolyCollection_6">
    <defs>
     <path id="mee584e482d" d="M 66.998727 -239.849402 
L 66.998727 -210.815639 
L 81.665447 -209.454468 
L 96.332166 -197.523026 
L 110.998885 -197.614379 
L 125.665605 -196.371403 
L 140.332324 -201.948877 
L 154.999043 -214.292828 
L 169.665763 -226.726063 
L 184.332482 -226.255863 
L 198.999202 -211.570267 
L 213.665921 -189.641368 
L 228.33264 -170.098143 
L 242.99936 -157.724876 
L 257.666079 -142.764092 
L 272.332798 -134.986493 
L 286.999518 -140.056033 
L 301.666237 -157.492149 
L 316.332957 -181.621773 
L 330.999676 -213.895734 
L 345.666395 -233.408673 
L 360.333115 -240.168789 
L 374.999834 -237.205625 
L 389.666553 -232.478204 
L 404.333273 -220.780083 
L 404.333273 -249.035624 
L 404.333273 -249.035624 
L 389.666553 -262.257067 
L 374.999834 -265.712138 
L 360.333115 -268.731968 
L 345.666395 -260.224046 
L 330.999676 -239.32898 
L 316.332957 -206.793328 
L 301.666237 -183.1367 
L 286.999518 -165.311157 
L 272.332798 -158.494783 
L 257.666079 -166.573377 
L 242.99936 -182.55733 
L 228.33264 -196.700917 
L 213.665921 -217.119659 
L 198.999202 -238.539384 
L 184.332482 -254.903971 
L 169.665763 -257.668075 
L 154.999043 -243.790839 
L 140.332324 -230.812204 
L 125.665605 -224.802626 
L 110.998885 -226.655046 
L 96.332166 -226.851493 
L 81.665447 -238.039619 
L 66.998727 -239.849402 
z
" style="stroke: #ff0000; stroke-opacity: 0.2"/>
    </defs>
    <g clip-path="url(#pa2265932f3)">
     <use xlink:href="#mee584e482d" x="0" y="576" style="fill: #ff0000; fill-opacity: 0.2; stroke: #ff0000; stroke-opacity: 0.2"/>
    </g>
   </g>
   <g id="matplotlib.axis_3">
    <g id="xtick_13">
     <g id="line2d_26">
      <g>
       <use xlink:href="#m6e6191b74e" x="66.998727" y="534.04" style="stroke: #000000; stroke-width: 0.8"/>
      </g>
     </g>
     <g id="text_25">
      <!-- 0 -->
      <g transform="translate(63.817477 548.638438) scale(0.1 -0.1)">
       <use xlink:href="#DejaVuSans-30"/>
      </g>
     </g>
    </g>
    <g id="xtick_14">
     <g id="line2d_27">
      <g>
       <use xlink:href="#m6e6191b74e" x="96.332166" y="534.04" style="stroke: #000000; stroke-width: 0.8"/>
      </g>
     </g>
     <g id="text_26">
      <!-- 2 -->
      <g transform="translate(93.150916 548.638438) scale(0.1 -0.1)">
       <use xlink:href="#DejaVuSans-32"/>
      </g>
     </g>
    </g>
    <g id="xtick_15">
     <g id="line2d_28">
      <g>
       <use xlink:href="#m6e6191b74e" x="125.665605" y="534.04" style="stroke: #000000; stroke-width: 0.8"/>
      </g>
     </g>
     <g id="text_27">
      <!-- 4 -->
      <g transform="translate(122.484355 548.638438) scale(0.1 -0.1)">
       <use xlink:href="#DejaVuSans-34"/>
      </g>
     </g>
    </g>
    <g id="xtick_16">
     <g id="line2d_29">
      <g>
       <use xlink:href="#m6e6191b74e" x="154.999043" y="534.04" style="stroke: #000000; stroke-width: 0.8"/>
      </g>
     </g>
     <g id="text_28">
      <!-- 6 -->
      <g transform="translate(151.817793 548.638438) scale(0.1 -0.1)">
       <use xlink:href="#DejaVuSans-36"/>
      </g>
     </g>
    </g>
    <g id="xtick_17">
     <g id="line2d_30">
      <g>
       <use xlink:href="#m6e6191b74e" x="184.332482" y="534.04" style="stroke: #000000; stroke-width: 0.8"/>
      </g>
     </g>
     <g id="text_29">
      <!-- 8 -->
      <g transform="translate(181.151232 548.638438) scale(0.1 -0.1)">
       <use xlink:href="#DejaVuSans-38"/>
      </g>
     </g>
    </g>
    <g id="xtick_18">
     <g id="line2d_31">
      <g>
       <use xlink:href="#m6e6191b74e" x="213.665921" y="534.04" style="stroke: #000000; stroke-width: 0.8"/>
      </g>
     </g>
     <g id="text_30">
      <!-- 10 -->
      <g transform="translate(207.303421 548.638438) scale(0.1 -0.1)">
       <use xlink:href="#DejaVuSans-31"/>
       <use xlink:href="#DejaVuSans-30" transform="translate(63.623047 0)"/>
      </g>
     </g>
    </g>
    <g id="xtick_19">
     <g id="line2d_32">
      <g>
       <use xlink:href="#m6e6191b74e" x="242.99936" y="534.04" style="stroke: #000000; stroke-width: 0.8"/>
      </g>
     </g>
     <g id="text_31">
      <!-- 12 -->
      <g transform="translate(236.63686 548.638438) scale(0.1 -0.1)">
       <use xlink:href="#DejaVuSans-31"/>
       <use xlink:href="#DejaVuSans-32" transform="translate(63.623047 0)"/>
      </g>
     </g>
    </g>
    <g id="xtick_20">
     <g id="line2d_33">
      <g>
       <use xlink:href="#m6e6191b74e" x="272.332798" y="534.04" style="stroke: #000000; stroke-width: 0.8"/>
      </g>
     </g>
     <g id="text_32">
      <!-- 14 -->
      <g transform="translate(265.970298 548.638438) scale(0.1 -0.1)">
       <use xlink:href="#DejaVuSans-31"/>
       <use xlink:href="#DejaVuSans-34" transform="translate(63.623047 0)"/>
      </g>
     </g>
    </g>
    <g id="xtick_21">
     <g id="line2d_34">
      <g>
       <use xlink:href="#m6e6191b74e" x="301.666237" y="534.04" style="stroke: #000000; stroke-width: 0.8"/>
      </g>
     </g>
     <g id="text_33">
      <!-- 16 -->
      <g transform="translate(295.303737 548.638438) scale(0.1 -0.1)">
       <use xlink:href="#DejaVuSans-31"/>
       <use xlink:href="#DejaVuSans-36" transform="translate(63.623047 0)"/>
      </g>
     </g>
    </g>
    <g id="xtick_22">
     <g id="line2d_35">
      <g>
       <use xlink:href="#m6e6191b74e" x="330.999676" y="534.04" style="stroke: #000000; stroke-width: 0.8"/>
      </g>
     </g>
     <g id="text_34">
      <!-- 18 -->
      <g transform="translate(324.637176 548.638438) scale(0.1 -0.1)">
       <use xlink:href="#DejaVuSans-31"/>
       <use xlink:href="#DejaVuSans-38" transform="translate(63.623047 0)"/>
      </g>
     </g>
    </g>
    <g id="xtick_23">
     <g id="line2d_36">
      <g>
       <use xlink:href="#m6e6191b74e" x="360.333115" y="534.04" style="stroke: #000000; stroke-width: 0.8"/>
      </g>
     </g>
     <g id="text_35">
      <!-- 20 -->
      <g transform="translate(353.970615 548.638438) scale(0.1 -0.1)">
       <use xlink:href="#DejaVuSans-32"/>
       <use xlink:href="#DejaVuSans-30" transform="translate(63.623047 0)"/>
      </g>
     </g>
    </g>
    <g id="xtick_24">
     <g id="line2d_37">
      <g>
       <use xlink:href="#m6e6191b74e" x="389.666553" y="534.04" style="stroke: #000000; stroke-width: 0.8"/>
      </g>
     </g>
     <g id="text_36">
      <!-- 22 -->
      <g transform="translate(383.304053 548.638438) scale(0.1 -0.1)">
       <use xlink:href="#DejaVuSans-32"/>
       <use xlink:href="#DejaVuSans-32" transform="translate(63.623047 0)"/>
      </g>
     </g>
    </g>
    <g id="text_37">
     <!-- Hour of day -->
     <g transform="translate(206.426937 562.316562) scale(0.1 -0.1)">
      <defs>
       <path id="DejaVuSans-48" d="M 628 4666 
L 1259 4666 
L 1259 2753 
L 3553 2753 
L 3553 4666 
L 4184 4666 
L 4184 0 
L 3553 0 
L 3553 2222 
L 1259 2222 
L 1259 0 
L 628 0 
L 628 4666 
z
" transform="scale(0.015625)"/>
       <path id="DejaVuSans-64" d="M 2906 2969 
L 2906 4863 
L 3481 4863 
L 3481 0 
L 2906 0 
L 2906 525 
Q 2725 213 2448 61 
Q 2172 -91 1784 -91 
Q 1150 -91 751 415 
Q 353 922 353 1747 
Q 353 2572 751 3078 
Q 1150 3584 1784 3584 
Q 2172 3584 2448 3432 
Q 2725 3281 2906 2969 
z
M 947 1747 
Q 947 1113 1208 752 
Q 1469 391 1925 391 
Q 2381 391 2643 752 
Q 2906 1113 2906 1747 
Q 2906 2381 2643 2742 
Q 2381 3103 1925 3103 
Q 1469 3103 1208 2742 
Q 947 2381 947 1747 
z
" transform="scale(0.015625)"/>
      </defs>
      <use xlink:href="#DejaVuSans-48"/>
      <use xlink:href="#DejaVuSans-6f" transform="translate(75.195312 0)"/>
      <use xlink:href="#DejaVuSans-75" transform="translate(136.376953 0)"/>
      <use xlink:href="#DejaVuSans-72" transform="translate(199.755859 0)"/>
      <use xlink:href="#DejaVuSans-20" transform="translate(240.869141 0)"/>
      <use xlink:href="#DejaVuSans-6f" transform="translate(272.65625 0)"/>
      <use xlink:href="#DejaVuSans-66" transform="translate(333.837891 0)"/>
      <use xlink:href="#DejaVuSans-20" transform="translate(369.042969 0)"/>
      <use xlink:href="#DejaVuSans-64" transform="translate(400.830078 0)"/>
      <use xlink:href="#DejaVuSans-61" transform="translate(464.306641 0)"/>
      <use xlink:href="#DejaVuSans-79" transform="translate(525.585938 0)"/>
     </g>
    </g>
   </g>
   <g id="matplotlib.axis_4">
    <g id="ytick_8">
     <g id="line2d_38">
      <g>
       <use xlink:href="#md6e13694a5" x="50.132" y="518.827754" style="stroke: #000000; stroke-width: 0.8"/>
      </g>
     </g>
     <g id="text_38">
      <!-- 9 -->
      <g transform="translate(36.7695 522.626973) scale(0.1 -0.1)">
       <defs>
        <path id="DejaVuSans-39" d="M 703 97 
L 703 672 
Q 941 559 1184 500 
Q 1428 441 1663 441 
Q 2288 441 2617 861 
Q 2947 1281 2994 2138 
Q 2813 1869 2534 1725 
Q 2256 1581 1919 1581 
Q 1219 1581 811 2004 
Q 403 2428 403 3163 
Q 403 3881 828 4315 
Q 1253 4750 1959 4750 
Q 2769 4750 3195 4129 
Q 3622 3509 3622 2328 
Q 3622 1225 3098 567 
Q 2575 -91 1691 -91 
Q 1453 -91 1209 -44 
Q 966 3 703 97 
z
M 1959 2075 
Q 2384 2075 2632 2365 
Q 2881 2656 2881 3163 
Q 2881 3666 2632 3958 
Q 2384 4250 1959 4250 
Q 1534 4250 1286 3958 
Q 1038 3666 1038 3163 
Q 1038 2656 1286 2365 
Q 1534 2075 1959 2075 
z
" transform="scale(0.015625)"/>
       </defs>
       <use xlink:href="#DejaVuSans-39"/>
      </g>
     </g>
    </g>
    <g id="ytick_9">
     <g id="line2d_39">
      <g>
       <use xlink:href="#md6e13694a5" x="50.132" y="481.939582" style="stroke: #000000; stroke-width: 0.8"/>
      </g>
     </g>
     <g id="text_39">
      <!-- 10 -->
      <g transform="translate(30.407 485.738801) scale(0.1 -0.1)">
       <use xlink:href="#DejaVuSans-31"/>
       <use xlink:href="#DejaVuSans-30" transform="translate(63.623047 0)"/>
      </g>
     </g>
    </g>
    <g id="ytick_10">
     <g id="line2d_40">
      <g>
       <use xlink:href="#md6e13694a5" x="50.132" y="445.051409" style="stroke: #000000; stroke-width: 0.8"/>
      </g>
     </g>
     <g id="text_40">
      <!-- 11 -->
      <g transform="translate(30.407 448.850628) scale(0.1 -0.1)">
       <use xlink:href="#DejaVuSans-31"/>
       <use xlink:href="#DejaVuSans-31" transform="translate(63.623047 0)"/>
      </g>
     </g>
    </g>
    <g id="ytick_11">
     <g id="line2d_41">
      <g>
       <use xlink:href="#md6e13694a5" x="50.132" y="408.163237" style="stroke: #000000; stroke-width: 0.8"/>
      </g>
     </g>
     <g id="text_41">
      <!-- 12 -->
      <g transform="translate(30.407 411.962456) scale(0.1 -0.1)">
       <use xlink:href="#DejaVuSans-31"/>
       <use xlink:href="#DejaVuSans-32" transform="translate(63.623047 0)"/>
      </g>
     </g>
    </g>
    <g id="ytick_12">
     <g id="line2d_42">
      <g>
       <use xlink:href="#md6e13694a5" x="50.132" y="371.275065" style="stroke: #000000; stroke-width: 0.8"/>
      </g>
     </g>
     <g id="text_42">
      <!-- 13 -->
      <g transform="translate(30.407 375.074283) scale(0.1 -0.1)">
       <use xlink:href="#DejaVuSans-31"/>
       <use xlink:href="#DejaVuSans-33" transform="translate(63.623047 0)"/>
      </g>
     </g>
    </g>
    <g id="ytick_13">
     <g id="line2d_43">
      <g>
       <use xlink:href="#md6e13694a5" x="50.132" y="334.386892" style="stroke: #000000; stroke-width: 0.8"/>
      </g>
     </g>
     <g id="text_43">
      <!-- 14 -->
      <g transform="translate(30.407 338.186111) scale(0.1 -0.1)">
       <use xlink:href="#DejaVuSans-31"/>
       <use xlink:href="#DejaVuSans-34" transform="translate(63.623047 0)"/>
      </g>
     </g>
    </g>
    <g id="ytick_14">
     <g id="line2d_44">
      <g>
       <use xlink:href="#md6e13694a5" x="50.132" y="297.49872" style="stroke: #000000; stroke-width: 0.8"/>
      </g>
     </g>
     <g id="text_44">
      <!-- 15 -->
      <g transform="translate(30.407 301.297938) scale(0.1 -0.1)">
       <use xlink:href="#DejaVuSans-31"/>
       <use xlink:href="#DejaVuSans-35" transform="translate(63.623047 0)"/>
      </g>
     </g>
    </g>
    <g id="text_45">
     <!-- PM2.5 concentration ($\mu g\: m^{-3}$) -->
     <g transform="translate(24.307 490.104684) rotate(-90) scale(0.1 -0.1)">
      <defs>
       <path id="DejaVuSans-4d" d="M 628 4666 
L 1569 4666 
L 2759 1491 
L 3956 4666 
L 4897 4666 
L 4897 0 
L 4281 0 
L 4281 4097 
L 3078 897 
L 2444 897 
L 1241 4097 
L 1241 0 
L 628 0 
L 628 4666 
z
" transform="scale(0.015625)"/>
       <path id="DejaVuSans-2e" d="M 684 794 
L 1344 794 
L 1344 0 
L 684 0 
L 684 794 
z
" transform="scale(0.015625)"/>
      </defs>
      <use xlink:href="#DejaVuSans-50" transform="translate(0 0.765625)"/>
      <use xlink:href="#DejaVuSans-4d" transform="translate(60.302734 0.765625)"/>
      <use xlink:href="#DejaVuSans-32" transform="translate(146.582031 0.765625)"/>
      <use xlink:href="#DejaVuSans-2e" transform="translate(210.205078 0.765625)"/>
      <use xlink:href="#DejaVuSans-35" transform="translate(241.992188 0.765625)"/>
      <use xlink:href="#DejaVuSans-20" transform="translate(305.615234 0.765625)"/>
      <use xlink:href="#DejaVuSans-63" transform="translate(337.402344 0.765625)"/>
      <use xlink:href="#DejaVuSans-6f" transform="translate(392.382812 0.765625)"/>
      <use xlink:href="#DejaVuSans-6e" transform="translate(453.564453 0.765625)"/>
      <use xlink:href="#DejaVuSans-63" transform="translate(516.943359 0.765625)"/>
      <use xlink:href="#DejaVuSans-65" transform="translate(571.923828 0.765625)"/>
      <use xlink:href="#DejaVuSans-6e" transform="translate(633.447266 0.765625)"/>
      <use xlink:href="#DejaVuSans-74" transform="translate(696.826172 0.765625)"/>
      <use xlink:href="#DejaVuSans-72" transform="translate(736.035156 0.765625)"/>
      <use xlink:href="#DejaVuSans-61" transform="translate(777.148438 0.765625)"/>
      <use xlink:href="#DejaVuSans-74" transform="translate(838.427734 0.765625)"/>
      <use xlink:href="#DejaVuSans-69" transform="translate(877.636719 0.765625)"/>
      <use xlink:href="#DejaVuSans-6f" transform="translate(905.419922 0.765625)"/>
      <use xlink:href="#DejaVuSans-6e" transform="translate(966.601562 0.765625)"/>
      <use xlink:href="#DejaVuSans-20" transform="translate(1029.980469 0.765625)"/>
      <use xlink:href="#DejaVuSans-28" transform="translate(1061.767578 0.765625)"/>
      <use xlink:href="#DejaVuSans-Oblique-3bc" transform="translate(1100.78125 0.765625)"/>
      <use xlink:href="#DejaVuSans-Oblique-67" transform="translate(1164.404297 0.765625)"/>
      <use xlink:href="#DejaVuSans-Oblique-6d" transform="translate(1249.527778 0.765625)"/>
      <use xlink:href="#DejaVuSans-2212" transform="translate(1351.589784 39.046875) scale(0.7)"/>
      <use xlink:href="#DejaVuSans-33" transform="translate(1410.242127 39.046875) scale(0.7)"/>
      <use xlink:href="#DejaVuSans-29" transform="translate(1457.512635 0.765625)"/>
     </g>
    </g>
   </g>
   <g id="line2d_45">
    <path d="M 66.998727 422.83672 
L 81.665447 421.300978 
L 96.332166 426.438763 
L 110.998885 429.154491 
L 125.665605 424.340016 
L 140.332324 420.186936 
L 154.999043 414.10988 
L 169.665763 406.480945 
L 184.332482 423.774934 
L 198.999202 451.400483 
L 213.665921 474.666046 
L 228.33264 482.487558 
L 242.99936 489.466884 
L 257.666079 498.246324 
L 272.332798 503.774563 
L 286.999518 498.436341 
L 301.666237 480.187394 
L 316.332957 459.242284 
L 330.999676 439.601898 
L 345.666395 425.900973 
L 360.333115 416.306694 
L 374.999834 410.889754 
L 389.666553 408.321636 
L 404.333273 416.212617 
" clip-path="url(#pa2265932f3)" style="fill: none; stroke: #0000ff; stroke-width: 1.5; stroke-linecap: square"/>
   </g>
   <g id="line2d_46">
    <path d="M 66.998727 391.283507 
L 81.665447 394.657195 
L 96.332166 390.878493 
L 110.998885 400.030273 
L 125.665605 412.317548 
L 140.332324 403.292948 
L 154.999043 390.371281 
L 169.665763 383.560143 
L 184.332482 387.701897 
L 198.999202 418.925617 
L 213.665921 423.292734 
L 228.33264 445.492464 
L 242.99936 452.697882 
L 257.666079 466.46927 
L 272.332798 477.647019 
L 286.999518 470.971142 
L 301.666237 467.911499 
L 316.332957 432.259543 
L 330.999676 411.801553 
L 345.666395 398.866805 
L 360.333115 380.152644 
L 374.999834 368.093074 
L 389.666553 374.867614 
L 404.333273 378.554243 
" clip-path="url(#pa2265932f3)" style="fill: none; stroke: #000000; stroke-width: 1.5; stroke-linecap: square"/>
   </g>
   <g id="line2d_47">
    <path d="M 66.998727 350.909913 
L 81.665447 353.639252 
L 96.332166 364.612512 
L 110.998885 364.280237 
L 125.665605 366.143208 
L 140.332324 359.422243 
L 154.999043 347.370762 
L 169.665763 333.772878 
L 184.332482 335.497121 
L 198.999202 350.605688 
L 213.665921 372.409739 
L 228.33264 392.790782 
L 242.99936 405.360646 
L 257.666079 421.879209 
L 272.332798 429.627876 
L 286.999518 423.234108 
L 301.666237 406.306919 
L 316.332957 381.642853 
L 330.999676 350.02366 
L 345.666395 329.256577 
L 360.333115 321.004445 
L 374.999834 325.075442 
L 389.666553 329.143449 
L 404.333273 340.791724 
" clip-path="url(#pa2265932f3)" style="fill: none; stroke: #ff0000; stroke-width: 1.5; stroke-linecap: square"/>
   </g>
   <g id="patch_10">
    <path d="M 50.132 534.04 
L 50.132 296.469367 
" style="fill: none; stroke: #000000; stroke-width: 0.8; stroke-linejoin: miter; stroke-linecap: square"/>
   </g>
   <g id="patch_11">
    <path d="M 421.2 534.04 
L 421.2 296.469367 
" style="fill: none; stroke: #000000; stroke-width: 0.8; stroke-linejoin: miter; stroke-linecap: square"/>
   </g>
   <g id="patch_12">
    <path d="M 50.132 534.04 
L 421.2 534.04 
" style="fill: none; stroke: #000000; stroke-width: 0.8; stroke-linejoin: miter; stroke-linecap: square"/>
   </g>
   <g id="patch_13">
    <path d="M 50.132 296.469367 
L 421.2 296.469367 
" style="fill: none; stroke: #000000; stroke-width: 0.8; stroke-linejoin: miter; stroke-linecap: square"/>
   </g>
   <g id="text_46">
    <g id="patch_14">
     <path d="M 53.132 314.147492 
L 69.435125 314.147492 
L 69.435125 298.469367 
L 53.132 298.469367 
z
" style="fill: #b2b2b2"/>
    </g>
    <!-- b) -->
    <g transform="translate(56.132 309.067805) scale(0.1 -0.1)">
     <defs>
      <path id="DejaVuSerif-62" d="M 738 331 
L 738 4531 
L 184 4531 
L 184 4863 
L 1313 4863 
L 1313 2803 
Q 1481 3116 1742 3264 
Q 2003 3413 2388 3413 
Q 3000 3413 3387 2928 
Q 3775 2444 3775 1663 
Q 3775 881 3387 395 
Q 3000 -91 2388 -91 
Q 2003 -91 1742 57 
Q 1481 206 1313 519 
L 1313 0 
L 184 0 
L 184 331 
L 738 331 
z
M 1313 1497 
Q 1313 897 1542 583 
Q 1772 269 2209 269 
Q 2650 269 2876 622 
Q 3103 975 3103 1663 
Q 3103 2353 2876 2703 
Q 2650 3053 2209 3053 
Q 1772 3053 1542 2737 
Q 1313 2422 1313 1825 
L 1313 1497 
z
" transform="scale(0.015625)"/>
     </defs>
     <use xlink:href="#DejaVuSerif-62"/>
     <use xlink:href="#DejaVuSerif-29" transform="translate(64.013672 0)"/>
    </g>
   </g>
  </g>
  <g id="text_47">
   <!-- Average Pollution by Hour of Day on Weekdays -->
   <g transform="translate(74.792812 20.638125) scale(0.12 -0.12)">
    <defs>
     <path id="DejaVuSans-41" d="M 2188 4044 
L 1331 1722 
L 3047 1722 
L 2188 4044 
z
M 1831 4666 
L 2547 4666 
L 4325 0 
L 3669 0 
L 3244 1197 
L 1141 1197 
L 716 0 
L 50 0 
L 1831 4666 
z
" transform="scale(0.015625)"/>
     <path id="DejaVuSans-67" d="M 2906 1791 
Q 2906 2416 2648 2759 
Q 2391 3103 1925 3103 
Q 1463 3103 1205 2759 
Q 947 2416 947 1791 
Q 947 1169 1205 825 
Q 1463 481 1925 481 
Q 2391 481 2648 825 
Q 2906 1169 2906 1791 
z
M 3481 434 
Q 3481 -459 3084 -895 
Q 2688 -1331 1869 -1331 
Q 1566 -1331 1297 -1286 
Q 1028 -1241 775 -1147 
L 775 -588 
Q 1028 -725 1275 -790 
Q 1522 -856 1778 -856 
Q 2344 -856 2625 -561 
Q 2906 -266 2906 331 
L 2906 616 
Q 2728 306 2450 153 
Q 2172 0 1784 0 
Q 1141 0 747 490 
Q 353 981 353 1791 
Q 353 2603 747 3093 
Q 1141 3584 1784 3584 
Q 2172 3584 2450 3431 
Q 2728 3278 2906 2969 
L 2906 3500 
L 3481 3500 
L 3481 434 
z
" transform="scale(0.015625)"/>
     <path id="DejaVuSans-62" d="M 3116 1747 
Q 3116 2381 2855 2742 
Q 2594 3103 2138 3103 
Q 1681 3103 1420 2742 
Q 1159 2381 1159 1747 
Q 1159 1113 1420 752 
Q 1681 391 2138 391 
Q 2594 391 2855 752 
Q 3116 1113 3116 1747 
z
M 1159 2969 
Q 1341 3281 1617 3432 
Q 1894 3584 2278 3584 
Q 2916 3584 3314 3078 
Q 3713 2572 3713 1747 
Q 3713 922 3314 415 
Q 2916 -91 2278 -91 
Q 1894 -91 1617 61 
Q 1341 213 1159 525 
L 1159 0 
L 581 0 
L 581 4863 
L 1159 4863 
L 1159 2969 
z
" transform="scale(0.015625)"/>
     <path id="DejaVuSans-44" d="M 1259 4147 
L 1259 519 
L 2022 519 
Q 2988 519 3436 956 
Q 3884 1394 3884 2338 
Q 3884 3275 3436 3711 
Q 2988 4147 2022 4147 
L 1259 4147 
z
M 628 4666 
L 1925 4666 
Q 3281 4666 3915 4102 
Q 4550 3538 4550 2338 
Q 4550 1131 3912 565 
Q 3275 0 1925 0 
L 628 0 
L 628 4666 
z
" transform="scale(0.015625)"/>
     <path id="DejaVuSans-57" d="M 213 4666 
L 850 4666 
L 1831 722 
L 2809 4666 
L 3519 4666 
L 4500 722 
L 5478 4666 
L 6119 4666 
L 4947 0 
L 4153 0 
L 3169 4050 
L 2175 0 
L 1381 0 
L 213 4666 
z
" transform="scale(0.015625)"/>
     <path id="DejaVuSans-6b" d="M 581 4863 
L 1159 4863 
L 1159 1991 
L 2875 3500 
L 3609 3500 
L 1753 1863 
L 3688 0 
L 2938 0 
L 1159 1709 
L 1159 0 
L 581 0 
L 581 4863 
z
" transform="scale(0.015625)"/>
    </defs>
    <use xlink:href="#DejaVuSans-41"/>
    <use xlink:href="#DejaVuSans-76" transform="translate(62.533203 0)"/>
    <use xlink:href="#DejaVuSans-65" transform="translate(121.712891 0)"/>
    <use xlink:href="#DejaVuSans-72" transform="translate(183.236328 0)"/>
    <use xlink:href="#DejaVuSans-61" transform="translate(224.349609 0)"/>
    <use xlink:href="#DejaVuSans-67" transform="translate(285.628906 0)"/>
    <use xlink:href="#DejaVuSans-65" transform="translate(349.105469 0)"/>
    <use xlink:href="#DejaVuSans-20" transform="translate(410.628906 0)"/>
    <use xlink:href="#DejaVuSans-50" transform="translate(442.416016 0)"/>
    <use xlink:href="#DejaVuSans-6f" transform="translate(499.09375 0)"/>
    <use xlink:href="#DejaVuSans-6c" transform="translate(560.275391 0)"/>
    <use xlink:href="#DejaVuSans-6c" transform="translate(588.058594 0)"/>
    <use xlink:href="#DejaVuSans-75" transform="translate(615.841797 0)"/>
    <use xlink:href="#DejaVuSans-74" transform="translate(679.220703 0)"/>
    <use xlink:href="#DejaVuSans-69" transform="translate(718.429688 0)"/>
    <use xlink:href="#DejaVuSans-6f" transform="translate(746.212891 0)"/>
    <use xlink:href="#DejaVuSans-6e" transform="translate(807.394531 0)"/>
    <use xlink:href="#DejaVuSans-20" transform="translate(870.773438 0)"/>
    <use xlink:href="#DejaVuSans-62" transform="translate(902.560547 0)"/>
    <use xlink:href="#DejaVuSans-79" transform="translate(966.037109 0)"/>
    <use xlink:href="#DejaVuSans-20" transform="translate(1025.216797 0)"/>
    <use xlink:href="#DejaVuSans-48" transform="translate(1057.003906 0)"/>
    <use xlink:href="#DejaVuSans-6f" transform="translate(1132.199219 0)"/>
    <use xlink:href="#DejaVuSans-75" transform="translate(1193.380859 0)"/>
    <use xlink:href="#DejaVuSans-72" transform="translate(1256.759766 0)"/>
    <use xlink:href="#DejaVuSans-20" transform="translate(1297.873047 0)"/>
    <use xlink:href="#DejaVuSans-6f" transform="translate(1329.660156 0)"/>
    <use xlink:href="#DejaVuSans-66" transform="translate(1390.841797 0)"/>
    <use xlink:href="#DejaVuSans-20" transform="translate(1426.046875 0)"/>
    <use xlink:href="#DejaVuSans-44" transform="translate(1457.833984 0)"/>
    <use xlink:href="#DejaVuSans-61" transform="translate(1534.835938 0)"/>
    <use xlink:href="#DejaVuSans-79" transform="translate(1596.115234 0)"/>
    <use xlink:href="#DejaVuSans-20" transform="translate(1655.294922 0)"/>
    <use xlink:href="#DejaVuSans-6f" transform="translate(1687.082031 0)"/>
    <use xlink:href="#DejaVuSans-6e" transform="translate(1748.263672 0)"/>
    <use xlink:href="#DejaVuSans-20" transform="translate(1811.642578 0)"/>
    <use xlink:href="#DejaVuSans-57" transform="translate(1843.429688 0)"/>
    <use xlink:href="#DejaVuSans-65" transform="translate(1936.431641 0)"/>
    <use xlink:href="#DejaVuSans-65" transform="translate(1997.955078 0)"/>
    <use xlink:href="#DejaVuSans-6b" transform="translate(2059.478516 0)"/>
    <use xlink:href="#DejaVuSans-64" transform="translate(2117.388672 0)"/>
    <use xlink:href="#DejaVuSans-61" transform="translate(2180.865234 0)"/>
    <use xlink:href="#DejaVuSans-79" transform="translate(2242.144531 0)"/>
    <use xlink:href="#DejaVuSans-73" transform="translate(2301.324219 0)"/>
   </g>
  </g>
 </g>
 <defs>
  <clipPath id="pef3da4f25f">
   <rect x="50.132" y="28.8" width="371.068" height="237.570633"/>
  </clipPath>
  <clipPath id="pa2265932f3">
   <rect x="50.132" y="296.469367" width="371.068" height="237.570633"/>
  </clipPath>
 </defs>
</svg>
